<svg width="32" height="32" viewBox="0 0 32 32" fill="none" xmlns="http://www.w3.org/2000/svg">
<path fill-rule="evenodd" clip-rule="evenodd" d="M28 9V28C28 29.0609 27.5786 30.0783 26.8284 30.8284C26.0783 31.5786 25.0609 32 24 32H22V30H24C24.5304 30 25.0391 29.7893 25.4142 29.4142C25.7893 29.0391 26 28.5304 26 28V9H22C21.2044 9 20.4413 8.68393 19.8787 8.12132C19.3161 7.55871 19 6.79565 19 6V2H8C7.46957 2 6.96086 2.21071 6.58579 2.58579C6.21071 2.96086 6 3.46957 6 4V22H4V4C4 2.93913 4.42143 1.92172 5.17157 1.17157C5.92172 0.421427 6.93913 0 8 0L19 0L28 9ZM3.2 23.7H0V31.698H1.582V29.014H3.188C3.76133 29.014 4.24933 28.8987 4.652 28.668C5.05867 28.4347 5.36733 28.1187 5.578 27.72C5.79758 27.303 5.90833 26.8372 5.9 26.366C5.9 25.866 5.79467 25.4147 5.584 25.012C5.37296 24.614 5.05413 24.2833 4.664 24.058C4.264 23.818 3.776 23.6987 3.2 23.7ZM4.29 26.366C4.29679 26.6295 4.2384 26.8905 4.12 27.126C4.01384 27.3312 3.84784 27.4993 3.644 27.608C3.41101 27.7227 3.1536 27.779 2.894 27.772H1.576V24.96H2.896C3.332 24.96 3.67333 25.0807 3.92 25.322C4.16667 25.566 4.29 25.914 4.29 26.366ZM6.724 23.7V31.698H9.644C10.4467 31.698 11.112 31.54 11.64 31.224C12.1743 30.9043 12.5915 30.4212 12.83 29.846C13.0913 29.246 13.222 28.5233 13.222 27.678C13.222 26.838 13.0913 26.1213 12.83 25.528C12.5939 24.9597 12.1808 24.4828 11.652 24.168C11.124 23.856 10.454 23.7 9.642 23.7H6.724ZM8.306 24.99H9.432C9.92667 24.99 10.3327 25.0913 10.65 25.294C10.979 25.511 11.2278 25.83 11.358 26.202C11.5153 26.6047 11.594 27.1067 11.594 27.708C11.6002 28.1069 11.5545 28.5049 11.458 28.892C11.389 29.1981 11.2554 29.4858 11.066 29.736C10.892 29.9603 10.6614 30.1342 10.398 30.24C10.0893 30.3554 9.76148 30.411 9.432 30.404H8.306V24.99ZM15.792 28.516V31.698H14.212V23.7H19.308V25.006H15.792V27.24H19.004V28.516H15.792Z" fill="white"/>
</svg>
