<svg width="32" height="32" viewBox="0 0 32 32" fill="none" xmlns="http://www.w3.org/2000/svg">
<g clip-path="url(#clip0_745_4548)">
<path d="M31.5214 19.8692C29.3836 28.4452 20.6947 33.6585 12.131 31.5206C3.55473 29.3829 -1.65852 20.6944 0.479358 12.1307C2.61711 3.55473 11.2934 -1.65852 19.8696 0.479359C28.4334 2.60461 33.6592 11.2931 31.5214 19.8692Z" fill="url(#paint0_linear_745_4548)"/>
<path d="M23.6188 14.0066C23.9313 11.8816 22.3187 10.7316 20.0937 9.96914L20.8187 7.08164L19.0687 6.64414L18.3688 9.45664C17.9063 9.34414 17.4313 9.23164 16.9563 9.13164L17.6562 6.30664L15.9062 5.86914L15.1937 8.74414C14.8062 8.65664 14.4312 8.56914 14.0687 8.48164V8.46914L11.6437 7.86914L11.1812 9.74414C11.1812 9.74414 12.4812 10.0441 12.4562 10.0566C13.1687 10.2316 13.2937 10.7066 13.2687 11.0816L12.4437 14.3691C12.4937 14.3816 12.5562 14.3941 12.6312 14.4316C12.5687 14.4191 12.5062 14.4066 12.4437 14.3816L11.2937 18.9816C11.2062 19.1941 10.9812 19.5191 10.4937 19.3941C10.5062 19.4191 9.21875 19.0816 9.21875 19.0816L8.34375 21.0941L10.6312 21.6691C11.0562 21.7816 11.4687 21.8816 11.8812 21.9941L11.1562 24.9066L12.9062 25.3441L13.6312 22.4566C14.1062 22.5816 14.5813 22.7066 15.0312 22.8191L14.3187 25.6941L16.0687 26.1316L16.7937 23.2191C19.7937 23.7816 22.0437 23.5566 22.9812 20.8441C23.7437 18.6691 22.9438 17.4066 21.3688 16.5816C22.5313 16.3191 23.3938 15.5566 23.6188 14.0066ZM19.6062 19.6316C19.0687 21.8066 15.3937 20.6316 14.2062 20.3316L15.1687 16.4691C16.3562 16.7691 20.1812 17.3566 19.6062 19.6316ZM20.1562 13.9691C19.6562 15.9566 16.6062 14.9441 15.6187 14.6941L16.4938 11.1941C17.4813 11.4441 20.6687 11.9066 20.1562 13.9691Z" fill="white"/>
</g>
<defs>
<linearGradient id="paint0_linear_745_4548" x1="1599.14" y1="-0.767999" x2="1599.14" y2="3199.68" gradientUnits="userSpaceOnUse">
<stop stop-color="#F9AA4B"/>
<stop offset="1" stop-color="#F7931A"/>
</linearGradient>
<clipPath id="clip0_745_4548">
<rect width="32" height="32" fill="white"/>
</clipPath>
</defs>
</svg>
