<svg width="23" height="16" viewBox="0 0 23 16" fill="none" xmlns="http://www.w3.org/2000/svg">
<g clip-path="url(#clip0_745_4545)">
<path d="M22.376 2.49556C22.2455 2.0132 21.9909 1.57346 21.6376 1.22011C21.2843 0.866766 20.8445 0.612143 20.3622 0.4816C18.5963 0 11.4893 0 11.4893 0C11.4893 0 4.38191 0.0145777 2.61604 0.496178C2.13369 0.626729 1.69395 0.881365 1.34061 1.23473C0.987281 1.58809 0.732683 2.02786 0.602175 2.51022C0.0680417 5.64782 -0.139158 10.4288 0.616842 13.4409C0.747364 13.9232 1.00197 14.363 1.3553 14.7163C1.70863 15.0697 2.14836 15.3243 2.63071 15.4548C4.39657 15.9364 11.5038 15.9364 11.5038 15.9364C11.5038 15.9364 18.6109 15.9364 20.3767 15.4548C20.859 15.3243 21.2988 15.0697 21.6521 14.7163C22.0055 14.363 22.2601 13.9233 22.3906 13.4409C22.954 10.2988 23.1276 5.5208 22.376 2.49556Z" fill="#FF0000"/>
<path d="M9.22656 11.3826L15.1224 7.96767L9.22656 4.55273V11.3826Z" fill="white"/>
</g>
<defs>
<clipPath id="clip0_745_4545">
<rect width="22.7556" height="16" fill="white" transform="translate(0.123047)"/>
</clipPath>
</defs>
</svg>
