<svg width="32" height="32" viewBox="0 0 32 32" fill="none" xmlns="http://www.w3.org/2000/svg">
<path d="M23.6465 17.8369V25.822H21.4383V17.8369C21.4383 16.4011 20.8679 15.024 19.8526 14.0087C18.8373 12.9934 17.4603 12.423 16.0244 12.423C14.5886 12.423 13.2115 12.9934 12.1962 14.0087C11.1809 15.024 10.6105 16.4011 10.6105 17.8369V25.822H8.40234V17.8369C8.40234 15.8154 9.20538 13.8767 10.6348 12.4473C12.0642 11.0179 14.0029 10.2148 16.0244 10.2148C18.0459 10.2148 19.9846 11.0179 21.414 12.4473C22.8434 13.8767 23.6465 15.8154 23.6465 17.8369Z" fill="#66CCFF"/>
<path d="M21.4391 25.8213V17.8361C21.4391 16.4003 20.8687 15.0233 19.8534 14.008C18.8381 12.9927 17.4611 12.4223 16.0252 12.4223C14.5894 12.4223 13.2123 12.9927 12.197 14.008C11.1817 15.0233 10.6114 16.4003 10.6114 17.8361V25.8213H9.67386V17.8361C9.67124 17.0004 9.83359 16.1723 10.1516 15.3995C10.4696 14.6266 10.937 13.9241 11.5271 13.3322C12.1171 12.7403 12.8182 12.2707 13.59 11.9502C14.3619 11.6298 15.1895 11.4648 16.0252 11.4648C16.861 11.4648 17.6885 11.6298 18.4604 11.9502C19.2323 12.2707 19.9333 12.7403 20.5233 13.3322C21.1134 13.9241 21.5808 14.6266 21.8988 15.3995C22.2168 16.1723 22.3792 17.0004 22.3765 17.8361V25.8213H21.4391Z" fill="#4DA6FF"/>
<path d="M25.8538 17.8367V25.8218H23.6457V17.8367C23.6457 15.8152 22.8426 13.8765 21.4132 12.4471C19.9838 11.0177 18.0451 10.2147 16.0236 10.2147C14.0021 10.2147 12.0634 11.0177 10.634 12.4471C9.20458 13.8765 8.40155 15.8152 8.40155 17.8367V25.8218H6.19336V17.8367C6.19992 15.2339 7.2385 12.7399 9.08131 10.9017C10.9241 9.06353 13.4207 8.03125 16.0236 8.03125C18.6264 8.03125 21.123 9.06353 22.9658 10.9017C24.8087 12.7399 25.8472 15.2339 25.8538 17.8367Z" fill="#52CC7B"/>
<path d="M23.6465 25.8221V17.837C23.6465 15.8155 22.8434 13.8768 21.414 12.4474C19.9846 11.0179 18.0459 10.2149 16.0244 10.2149C14.0029 10.2149 12.0642 11.0179 10.6348 12.4474C9.20538 13.8768 8.40234 15.8155 8.40234 17.837V25.8221H7.46484V17.837C7.46484 13.1172 11.3047 9.27734 16.0244 9.27734C20.7442 9.27734 24.584 13.117 24.584 17.837V25.8221H23.6465Z" fill="#3D997A"/>
<path d="M28.0631 17.8372V25.8223H25.8549V17.8372C25.8483 15.2344 24.8098 12.7404 22.9669 10.9022C21.1241 9.06402 18.6275 8.03174 16.0247 8.03174C13.4218 8.03174 10.9252 9.06402 9.0824 10.9022C7.23959 12.7404 6.20102 15.2344 6.19445 17.8372V25.8223H3.98633V17.8372C3.98633 11.1886 9.37608 5.79883 16.0247 5.79883C22.6733 5.79883 28.0631 11.1884 28.0631 17.8372Z" fill="#FFDF40"/>
<path d="M25.8538 25.8213V17.8362C25.8472 15.2333 24.8087 12.7393 22.9658 10.9012C21.123 9.06299 18.6264 8.03071 16.0236 8.03071C13.4207 8.03071 10.9241 9.06299 9.08131 10.9012C7.2385 12.7393 6.19992 15.2333 6.19336 17.8362V25.8213H5.25586V17.8362C5.25586 11.8987 10.0863 7.06836 16.0236 7.06836C21.9609 7.06836 26.7913 11.8987 26.7913 17.8362V25.8213H25.8538Z" fill="#FFBE40"/>
<path d="M30.2705 17.8364V25.8215H28.0623V17.8364C28.0623 11.1878 22.6725 5.79803 16.0239 5.79803C9.37528 5.79803 3.98553 11.1876 3.98553 17.8364V25.8215H1.77734V17.8364C1.77734 9.96828 8.15572 3.58984 16.0239 3.58984C23.8921 3.58984 30.2705 9.96809 30.2705 17.8364Z" fill="#FF5959"/>
<path d="M28.0631 25.8225V17.8373C28.0631 11.1887 22.6733 5.79895 16.0247 5.79895C9.37608 5.79895 3.98633 11.1885 3.98633 17.8373V25.8225H3.04883V17.8373C3.04883 10.6823 8.86977 4.86133 16.0247 4.86133C23.1796 4.86133 29.0006 10.6822 29.0006 17.8373V25.8225H28.0631Z" fill="#E63A57"/>
<path d="M0.905002 27.5283C0.700111 27.1675 0.588006 26.7615 0.578749 26.3467C0.569492 25.9319 0.663373 25.5213 0.851966 25.1518C1.04056 24.7822 1.31796 24.4653 1.65928 24.2294C2.00059 23.9935 2.39514 23.846 2.8075 23.8002C2.84406 23.2588 3.06829 22.747 3.44155 22.3531C3.81481 21.9592 4.31375 21.7078 4.85245 21.6421C5.39114 21.5765 5.93586 21.7007 6.3928 21.9935C6.84974 22.2862 7.19029 22.7292 7.35581 23.246C7.65877 23.01 8.0219 22.8638 8.40386 22.8241C8.78582 22.7844 9.17126 22.8528 9.51626 23.0215C9.86127 23.1901 10.152 23.4522 10.3553 23.778C10.5586 24.1038 10.6663 24.4802 10.6662 24.8642C10.6662 24.8784 10.6654 24.8923 10.6652 24.9064C11.0039 24.8317 11.3571 24.8569 11.6818 24.979C12.0064 25.1011 12.2887 25.3149 12.4942 25.5943C12.6997 25.8737 12.8197 26.2068 12.8396 26.5531C12.8595 26.8994 12.7784 27.2441 12.6061 27.5452C12.4508 27.8099 12.2284 28.0291 11.9615 28.1807C11.6946 28.3323 11.3924 28.411 11.0854 28.4087H2.43581C2.12569 28.4099 1.82076 28.3291 1.55192 28.1745C1.28309 28.0199 1.05991 27.797 0.905002 27.5283Z" fill="#F5F5F5"/>
<path d="M12.8419 26.6553C12.8424 26.9676 12.7608 27.2745 12.6055 27.5453C12.424 27.8588 12.1477 28.1065 11.8163 28.2526C11.8748 27.9088 11.9044 26.7893 11.9044 26.6553C11.9044 26.5275 11.8757 26.4013 11.8205 26.2861C11.7652 26.1709 11.6848 26.0695 11.5851 25.9896C11.4854 25.9096 11.3691 25.853 11.2446 25.8241C11.1201 25.7951 10.9908 25.7944 10.866 25.8221L10.366 25.9323C10.2869 25.9497 10.205 25.9489 10.1262 25.93C10.0475 25.9111 9.9741 25.8745 9.91155 25.8231C9.84901 25.7717 9.79895 25.7068 9.76517 25.6332C9.73138 25.5596 9.71475 25.4793 9.71652 25.3984L9.72827 24.8586C9.72731 24.706 9.69502 24.5552 9.6334 24.4156C9.57179 24.2759 9.48216 24.1504 9.37006 24.0469C9.25797 23.9433 9.12579 23.8638 8.98174 23.8134C8.83768 23.763 8.6848 23.7427 8.53258 23.7538C8.30495 23.7733 8.08823 23.8599 7.90983 24.0026L7.47645 24.3401C7.40854 24.3931 7.32883 24.4288 7.24413 24.4444C7.15943 24.4599 7.07222 24.4547 6.98994 24.4293C6.90765 24.4039 6.83272 24.359 6.77152 24.2985C6.71031 24.2379 6.66464 24.1634 6.63839 24.0814L6.47227 23.5623C6.38909 23.2934 6.228 23.0553 6.00941 22.8781C5.79082 22.7009 5.52455 22.5925 5.24433 22.5667C5.06048 22.5524 4.87562 22.5747 4.70042 22.6322C4.52521 22.6897 4.36313 22.7813 4.22351 22.9018C4.08389 23.0222 3.96951 23.1692 3.88696 23.3341C3.8044 23.499 3.75531 23.6786 3.74252 23.8625L3.72002 24.1994C3.71166 24.3247 3.65949 24.443 3.57264 24.5337C3.4858 24.6244 3.36982 24.6816 3.24502 24.6953L2.90945 24.7321C2.52584 24.774 2.17129 24.9563 1.91399 25.2439C1.6567 25.5315 1.51484 25.9041 1.5157 26.29C1.5157 26.5393 1.57495 27.8456 1.68745 28.2433C1.35851 28.0923 1.08497 27.8422 0.90508 27.5281C0.700155 27.1674 0.588024 26.7614 0.578751 26.3465C0.569478 25.9317 0.663354 25.5211 0.851952 25.1516C1.04055 24.782 1.31797 24.465 1.6593 24.2291C2.00063 23.9933 2.3952 23.8458 2.80758 23.8001C2.84418 23.2587 3.06841 22.747 3.44167 22.3531C3.81493 21.9592 4.31384 21.7078 4.85251 21.6421C5.39117 21.5765 5.93587 21.7007 6.39279 21.9934C6.84972 22.2862 7.19028 22.729 7.35583 23.2458C7.65879 23.0099 8.02194 22.8637 8.4039 22.824C8.78586 22.7843 9.17129 22.8527 9.5163 23.0213C9.86131 23.19 10.152 23.4521 10.3554 23.7779C10.5587 24.1037 10.6664 24.48 10.6663 24.864C10.6663 24.8781 10.6655 24.8921 10.6653 24.9063C10.927 24.8484 11.1983 24.85 11.4593 24.911C11.7203 24.9719 11.9643 25.0907 12.1733 25.2586C12.3822 25.4264 12.5509 25.639 12.6667 25.8807C12.7826 26.1224 12.8427 26.387 12.8426 26.655L12.8419 26.6553Z" fill="#E6E6E6"/>
<path d="M29.5632 28.4086H20.9132C20.6063 28.4107 20.3043 28.332 20.0374 28.1804C19.7706 28.0289 19.5483 27.8097 19.393 27.545C19.2206 27.2439 19.1394 26.8993 19.1592 26.5529C19.179 26.2065 19.2989 25.8733 19.5045 25.5938C19.7101 25.3143 19.9924 25.1006 20.3172 24.9785C20.642 24.8564 20.9952 24.8313 21.334 24.9063C21.334 24.8921 21.333 24.8782 21.333 24.864C21.3329 24.4801 21.4407 24.1038 21.644 23.7781C21.8473 23.4524 22.1379 23.1903 22.4829 23.0216C22.8278 22.853 23.2132 22.7846 23.5951 22.8243C23.977 22.8639 24.3401 23.01 24.643 23.2458C24.8086 22.729 25.1491 22.2862 25.6061 21.9934C26.063 21.7007 26.6077 21.5765 27.1464 21.6421C27.685 21.7078 28.1839 21.9592 28.5572 22.3531C28.9305 22.747 29.1547 23.2587 29.1913 23.8001C29.6037 23.8458 29.9982 23.9933 30.3396 24.2291C30.6809 24.465 30.9583 24.782 31.1469 25.1516C31.3355 25.5211 31.4294 25.9317 31.4201 26.3465C31.4108 26.7614 31.2987 27.1674 31.0938 27.5281C30.9389 27.7968 30.7158 28.0197 30.447 28.1743C30.1782 28.3289 29.8733 28.4097 29.5632 28.4086Z" fill="#F5F5F5"/>
<path d="M20.9472 24.864C21.0771 24.8641 21.2067 24.8782 21.3336 24.9063C21.3336 24.8921 21.3325 24.8781 21.3325 24.864C21.3324 24.48 21.4402 24.1037 21.6435 23.778C21.8468 23.4522 22.1375 23.1901 22.4825 23.0215C22.8275 22.8529 23.2129 22.7845 23.5948 22.8241C23.9767 22.8638 24.3398 23.0099 24.6428 23.2458C24.8084 22.729 25.1489 22.2862 25.6059 21.9934C26.0628 21.7007 26.6075 21.5765 27.1461 21.6421C27.6848 21.7078 28.1837 21.9592 28.557 22.3531C28.9302 22.747 29.1545 23.2587 29.1911 23.8001C29.6034 23.8458 29.998 23.9933 30.3393 24.2291C30.6807 24.465 30.9581 24.782 31.1467 25.1516C31.3353 25.5211 31.4292 25.9317 31.4199 26.3465C31.4106 26.7614 31.2985 27.1674 31.0936 27.5281C30.9137 27.8421 30.6403 28.092 30.3116 28.2431C30.4241 27.8454 30.4833 26.5391 30.4833 26.2898C30.4842 25.9039 30.3423 25.5313 30.085 25.2437C29.8277 24.9561 29.4732 24.7738 29.0896 24.7318L28.754 24.6951C28.6292 24.6813 28.5132 24.6241 28.4264 24.5334C28.3395 24.4428 28.2874 24.3244 28.279 24.1991L28.2565 23.8623C28.2437 23.6783 28.1946 23.4987 28.1121 23.3338C28.0295 23.1689 27.9151 23.022 27.7755 22.9015C27.6359 22.7811 27.4738 22.6894 27.2986 22.6319C27.1234 22.5744 26.9385 22.5522 26.7547 22.5665C26.4745 22.5922 26.2082 22.7006 25.9896 22.8778C25.771 23.0551 25.6099 23.2932 25.5268 23.562L25.3606 24.0811C25.3344 24.1632 25.2887 24.2376 25.2275 24.2982C25.1663 24.3588 25.0914 24.4037 25.0091 24.4291C24.9268 24.4545 24.8396 24.4597 24.7549 24.4441C24.6702 24.4286 24.5905 24.3928 24.5226 24.3399L24.0892 24.0024C23.9108 23.8597 23.6941 23.7731 23.4664 23.7535C23.3142 23.7424 23.1613 23.7627 23.0173 23.8132C22.8732 23.8636 22.7411 23.943 22.629 24.0466C22.5169 24.1502 22.4272 24.2757 22.3656 24.4153C22.304 24.555 22.2717 24.7058 22.2708 24.8584L22.2825 25.3981C22.2843 25.4791 22.2676 25.5594 22.2339 25.6329C22.2001 25.7065 22.15 25.7715 22.0875 25.8229C22.0249 25.8743 21.9515 25.9108 21.8728 25.9297C21.7941 25.9486 21.7121 25.9494 21.633 25.932L21.133 25.8219C21.0083 25.7942 20.8789 25.7948 20.7544 25.8238C20.63 25.8528 20.5136 25.9094 20.4139 25.9893C20.3143 26.0693 20.2338 26.1706 20.1786 26.2858C20.1233 26.4011 20.0946 26.5272 20.0946 26.655C20.0946 26.7891 20.1243 27.9087 20.1828 28.2523C19.8511 28.1063 19.5744 27.8586 19.3928 27.545C19.2369 27.2726 19.1554 26.964 19.1563 26.6502C19.1572 26.3363 19.2405 26.0282 19.3979 25.7567C19.5553 25.4852 19.7813 25.2598 20.0533 25.1031C20.3252 24.9463 20.6335 24.8638 20.9474 24.8638L20.9472 24.864Z" fill="#E6E6E6"/>
<path d="M30.7084 23.9535V17.8366C30.7085 14.9323 29.8473 12.0933 28.2338 9.67849C26.6203 7.26368 24.327 5.38157 21.6438 4.27014C18.9606 3.15872 16.0082 2.86791 13.1597 3.43449C10.3113 4.00107 7.6948 5.39959 5.64118 7.4532C4.27334 8.81359 3.18891 10.4318 2.45067 12.2141C1.71242 13.9964 1.33502 15.9074 1.34031 17.8366V23.9172C0.759458 24.3447 0.355617 24.9705 0.205314 25.6759C0.0550113 26.3813 0.16869 27.1173 0.524809 27.7444C0.718147 28.08 0.996677 28.3586 1.33223 28.552C1.66778 28.7454 2.04845 28.8468 2.43575 28.8458H11.0856C11.4695 28.8479 11.8472 28.7488 12.1807 28.5586C12.5142 28.3685 12.7918 28.0939 12.9856 27.7624C13.179 27.4245 13.2805 27.0418 13.2801 26.6525C13.2796 26.2631 13.1771 25.8807 12.9829 25.5432C12.7887 25.2058 12.5094 24.9251 12.173 24.7291C11.8365 24.5331 11.4546 24.4287 11.0652 24.4263C11.0601 24.3973 11.0541 24.3686 11.0479 24.34V17.8366C11.0479 16.5168 11.5722 15.251 12.5054 14.3177C13.4387 13.3845 14.7044 12.8602 16.0242 12.8602C17.3441 12.8602 18.6098 13.3845 19.5431 14.3177C20.4763 15.251 21.0006 16.5168 21.0006 17.8366V24.1498C20.9731 24.2406 20.9509 24.3329 20.9341 24.4263C20.5448 24.4287 20.1629 24.5331 19.8264 24.7291C19.49 24.9251 19.2107 25.2058 19.0165 25.5432C18.8222 25.8807 18.7198 26.2631 18.7193 26.6525C18.7188 27.0418 18.8204 27.4245 19.0138 27.7624C19.2076 28.0939 19.4852 28.3685 19.8187 28.5586C20.1522 28.7488 20.5299 28.8479 20.9138 28.8458H29.5637C29.951 28.8468 30.3317 28.7455 30.6673 28.5521C31.0029 28.3587 31.2815 28.0801 31.4748 27.7444C31.8258 27.1264 31.9415 26.4023 31.8007 25.7057C31.6599 25.009 31.2721 24.3867 30.7086 23.9535H30.7084ZM2.21531 17.8366C2.21531 10.2222 8.41 4.02751 16.0244 4.02751C23.6387 4.02751 29.8334 10.222 29.8334 17.8366V23.4928C29.7516 23.4662 29.6681 23.4428 29.5834 23.4233C29.4482 22.7414 29.0617 22.1352 28.5006 21.7248V17.8366C28.5006 10.9573 22.9039 5.3607 16.0247 5.3607C9.1455 5.3607 3.5485 10.9571 3.5485 17.8366V21.689C2.96147 22.0993 2.55584 22.7207 2.4165 23.4232C2.34837 23.4389 2.28143 23.4574 2.21531 23.4778V17.8366ZM16.0244 9.77682C13.8876 9.77926 11.839 10.6292 10.328 12.1402C8.81708 13.6511 7.96719 15.6998 7.96481 17.8366V22.4616C7.82446 22.4993 7.68777 22.5495 7.55637 22.6116C7.33462 22.2115 7.01672 21.8729 6.63137 21.6264V17.8366C6.63137 12.6574 10.8449 8.44389 16.0241 8.44389C21.2033 8.44389 25.4171 12.6573 25.4171 17.8366V21.5947C25.0101 21.8435 24.6746 22.1936 24.4436 22.611C24.3275 22.5563 24.2074 22.5108 24.0842 22.475V17.8366C24.0819 15.6997 23.2319 13.651 21.7209 12.1401C20.2099 10.6291 18.1612 9.77917 16.0244 9.77682ZM16.0244 7.5687C10.3627 7.5687 5.75662 12.1749 5.75662 17.8364V21.2584C5.55252 21.2114 5.34377 21.1875 5.13431 21.1871C4.89432 21.1871 4.65536 21.2184 4.4235 21.2803V17.8366C4.4235 11.4398 9.62762 6.2357 16.0244 6.2357C22.4211 6.2357 27.6252 11.4396 27.6252 17.8366V21.2945C27.3782 21.2234 27.1224 21.1874 26.8653 21.1873C26.6727 21.1874 26.4806 21.2073 26.2921 21.2468V17.8366C26.2921 12.1748 21.686 7.5687 16.0244 7.5687ZM12.4052 26.6548C12.4053 26.8906 12.3438 27.1223 12.2267 27.327C12.1097 27.525 11.9427 27.6887 11.7424 27.8017C11.542 27.9147 11.3155 27.973 11.0856 27.9708H2.43593C2.20308 27.9719 1.97406 27.9115 1.77202 27.7958C1.56997 27.68 1.40205 27.513 1.28525 27.3116C1.11624 27.0138 1.02378 26.6788 1.01618 26.3365C1.00858 25.9942 1.08606 25.6554 1.24168 25.3505C1.3973 25.0455 1.62619 24.784 1.90781 24.5893C2.18943 24.3946 2.51498 24.2729 2.85525 24.235C2.95741 24.2238 3.05236 24.177 3.12347 24.1028C3.19458 24.0286 3.23729 23.9317 3.24412 23.8292C3.27393 23.3894 3.45615 22.9737 3.75941 22.6538C4.06267 22.3338 4.46799 22.1297 4.90559 22.0764C5.34318 22.0231 5.78566 22.124 6.15684 22.3618C6.52803 22.5996 6.80469 22.9594 6.93918 23.3792C6.96069 23.4463 6.99808 23.5072 7.04816 23.5567C7.09825 23.6062 7.15955 23.6429 7.22687 23.6637C7.29418 23.6845 7.36551 23.6886 7.43479 23.6759C7.50407 23.6632 7.56926 23.634 7.62481 23.5906C7.90735 23.3691 8.25631 23.2492 8.61537 23.2503C9.04311 23.2507 9.45319 23.4209 9.75567 23.7233C10.0581 24.0257 10.2283 24.4358 10.2289 24.8635L10.2279 24.8975C10.2266 24.9636 10.2403 25.0292 10.268 25.0892C10.2957 25.1493 10.3367 25.2023 10.3878 25.2442C10.439 25.2861 10.4989 25.316 10.5632 25.3314C10.6276 25.3468 10.6945 25.3474 10.7591 25.3333C10.9569 25.2895 11.162 25.2906 11.3593 25.3367C11.5566 25.3827 11.741 25.4725 11.899 25.5993C12.057 25.7261 12.1844 25.8868 12.272 26.0695C12.3596 26.2522 12.4051 26.4522 12.4051 26.6548H12.4052ZM16.0244 11.985C14.473 11.9868 12.9857 12.6038 11.8887 13.7008C10.7917 14.7978 10.1747 16.2852 10.173 17.8366V22.9253C9.7918 22.6174 9.32783 22.4295 8.83981 22.3855V17.8366C8.83981 15.9311 9.59675 14.1037 10.9441 12.7563C12.2915 11.409 14.1189 10.652 16.0244 10.652C17.9298 10.652 19.7573 11.409 21.1046 12.7563C22.452 14.1037 23.2089 15.9311 23.2089 17.8366V22.3822C22.7247 22.4159 22.2611 22.5913 21.8757 22.8864V17.8366C21.874 16.2852 21.257 14.7978 20.16 13.7008C19.0631 12.6038 17.5757 11.9868 16.0244 11.985ZM30.7144 27.3116C30.5976 27.5131 30.4297 27.6802 30.2277 27.796C30.0256 27.9118 29.7966 27.9722 29.5637 27.9711H20.9141C20.6841 27.9733 20.4576 27.915 20.2573 27.802C20.057 27.689 19.8899 27.5253 19.7729 27.3273C19.6427 27.0997 19.5814 26.8392 19.5965 26.5775C19.6115 26.3157 19.7023 26.064 19.8577 25.8528C20.0131 25.6416 20.2265 25.4802 20.472 25.388C20.7174 25.2958 20.9844 25.2769 21.2404 25.3336C21.305 25.3478 21.3719 25.3471 21.4362 25.3317C21.5006 25.3163 21.5605 25.2865 21.6117 25.2445C21.6628 25.2026 21.7038 25.1496 21.7315 25.0895C21.7592 25.0295 21.7729 24.9639 21.7716 24.8978L21.7706 24.8641C21.7711 24.4363 21.9413 24.0262 22.2438 23.7237C22.5462 23.4212 22.9563 23.2511 23.3841 23.2506C23.7432 23.2494 24.0922 23.3692 24.3748 23.5906C24.4304 23.6339 24.4956 23.6632 24.5649 23.6759C24.6342 23.6886 24.7055 23.6844 24.7728 23.6636C24.8401 23.6428 24.9014 23.6061 24.9515 23.5565C25.0016 23.507 25.039 23.446 25.0604 23.379C25.1949 22.9591 25.4716 22.5994 25.8428 22.3616C26.214 22.1238 26.6564 22.0228 27.094 22.0761C27.5316 22.1294 27.9369 22.3336 28.2402 22.6535C28.5435 22.9735 28.7257 23.3891 28.7555 23.829C28.7623 23.9315 28.805 24.0284 28.8762 24.1026C28.9473 24.1768 29.0422 24.2236 29.1444 24.2348C29.4847 24.2726 29.8103 24.3943 30.0919 24.589C30.3736 24.7837 30.6025 25.0453 30.7581 25.3503C30.9137 25.6553 30.9912 25.9941 30.9836 26.3364C30.9759 26.6788 30.8834 27.0138 30.7144 27.3116Z" fill="black"/>
</svg>
