<svg width="21" height="24" viewBox="0 0 21 24" fill="none" xmlns="http://www.w3.org/2000/svg">
<path d="M9.31 9.75404L15.158 6.38004C15.1887 6.36233 15.2141 6.3368 15.2317 6.30606C15.2492 6.27531 15.2583 6.24045 15.258 6.20504L15.26 3.65204C15.26 3.32804 15.127 3.00704 14.868 2.81104C14.7103 2.68849 14.5196 2.61594 14.3203 2.60276C14.1211 2.58957 13.9224 2.63634 13.75 2.73704L11.325 4.13704L4.889 7.84904C4.73604 7.93758 4.60899 8.06472 4.52055 8.21773C4.43211 8.37075 4.38537 8.5443 4.385 8.72104L4.382 17.442V20.267C4.382 20.591 4.514 20.912 4.772 21.109C5.107 21.362 5.538 21.387 5.892 21.183L8.255 19.819C8.28586 19.8015 8.31147 19.776 8.32922 19.7452C8.34698 19.7145 8.35622 19.6795 8.356 19.644L8.359 11.4C8.359 11.0663 8.4469 10.7385 8.61385 10.4496C8.78079 10.1606 9.0209 9.92072 9.31 9.75404ZM19.626 5.41804C19.4731 5.32853 19.2992 5.28125 19.122 5.28104C18.9452 5.28143 18.7716 5.3287 18.619 5.41804L9.759 10.53C9.60615 10.6183 9.47909 10.745 9.39048 10.8977C9.30188 11.0503 9.25482 11.2235 9.254 11.4L9.251 22.991C9.251 23.355 9.439 23.681 9.754 23.863C9.90685 23.9521 10.0806 23.999 10.2575 23.999C10.4344 23.999 10.6082 23.9521 10.761 23.863L19.621 18.751C19.774 18.6625 19.901 18.5354 19.9894 18.3823C20.0779 18.2293 20.1246 18.0558 20.125 17.879L20.129 6.28904C20.1296 6.11236 20.0833 5.93869 19.995 5.7857C19.9066 5.6327 19.7793 5.50585 19.626 5.41804ZM4.442 7.07404L10.776 3.41904C10.8067 3.40133 10.8321 3.3758 10.8497 3.34506C10.8672 3.31431 10.8763 3.27945 10.876 3.24404L10.877 1.05104C10.877 0.727039 10.744 0.405039 10.485 0.211039C10.3274 0.0883314 10.1367 0.0156101 9.93749 0.00224309C9.73823 -0.0111239 9.53954 0.0354757 9.367 0.136039L0.507 5.25004C0.354041 5.33858 0.226993 5.46571 0.138551 5.61873C0.0501094 5.77175 0.00336904 5.9453 0.00300002 6.12204L0 17.668C0 17.992 0.133 18.313 0.39 18.51C0.547854 18.633 0.738971 18.7058 0.938638 18.719C1.13831 18.7322 1.33734 18.6852 1.51 18.584L3.387 17.502C3.41767 17.4843 3.44309 17.4588 3.46066 17.4281C3.47823 17.3973 3.48732 17.3624 3.487 17.327L3.49 8.72204C3.49 8.04204 3.853 7.41404 4.442 7.07404Z" fill="black"/>
</svg>
