<svg width="90" height="90" viewBox="0 0 90 90" fill="none" xmlns="http://www.w3.org/2000/svg">
<path d="M81.5625 2.1097H8.4375C6.77834 2.09281 5.18025 2.73481 3.99388 3.89481C2.80751 5.05482 2.12977 6.63808 2.10938 8.2972V81.7175C2.13346 83.3742 2.81282 84.9538 3.99879 86.1108C5.18476 87.2678 6.78075 87.9079 8.4375 87.891H81.5625C83.2218 87.9041 84.8188 87.2599 86.0045 86.0992C87.1903 84.9385 87.8684 83.3556 87.8906 81.6964V8.27611C87.861 6.62185 87.1797 5.04614 85.9948 3.89146C84.8098 2.73678 83.217 2.09647 81.5625 2.1097Z" fill="#0076B2"/>
<path d="M14.8074 34.2637H27.541V75.2348H14.8074V34.2637ZM21.1777 13.873C22.6382 13.873 24.0659 14.3062 25.2801 15.1178C26.4944 15.9293 27.4407 17.0828 27.9992 18.4322C28.5578 19.7816 28.7036 21.2664 28.4182 22.6988C28.1327 24.1311 27.4289 25.4466 26.3957 26.4788C25.3625 27.511 24.0463 28.2136 22.6137 28.4977C21.1811 28.7817 19.6965 28.6345 18.3476 28.0747C16.9987 27.5148 15.8461 26.5674 15.0357 25.3524C14.2253 24.1374 13.7935 22.7093 13.7949 21.2488C13.7968 19.292 14.5754 17.416 15.9598 16.0329C17.3441 14.6499 19.2209 13.873 21.1777 13.873ZM35.5285 34.2637H47.7348V39.8887H47.9035C49.6051 36.6684 53.7535 33.2723 59.9481 33.2723C72.8434 33.2441 75.234 41.7309 75.234 52.7348V75.2348H62.5004V55.3012C62.5004 50.5551 62.416 44.4449 55.884 44.4449C49.352 44.4449 48.241 49.6199 48.241 54.9918V75.2348H35.5285V34.2637Z" fill="white"/>
</svg>
