<svg width="90" height="74" viewBox="0 0 90 74" fill="none" xmlns="http://www.w3.org/2000/svg">
<g clip-path="url(#clip0_150_1316)">
<path d="M50.791 36.9373L59.5437 46.942L71.3143 54.463L73.3617 37.0004L71.3143 19.9316L59.3182 26.5387L50.791 36.9373Z" fill="#00832D"/>
<path d="M0 52.8372V67.7179C0 71.1156 2.75799 73.8743 6.15638 73.8743H21.037L24.1184 62.6308L21.037 52.8372L10.8278 49.7559L0 52.8372Z" fill="#0066DA"/>
<path d="M21.037 0L0 21.037L10.8286 24.111L21.037 21.037L24.0623 11.3767L21.037 0Z" fill="#E94235"/>
<path d="M0 52.8452H21.0367V21.0371H0V52.8452Z" fill="#2684FC"/>
<path d="M84.7533 8.90713L71.3145 19.9321V54.4631L84.8088 65.5308C86.8289 67.1132 89.7839 65.6711 89.7839 63.1032V11.2857C89.7839 8.68934 86.7584 7.25423 84.753 8.90748" fill="#00AC47"/>
<path d="M50.7907 36.9375V52.838H21.0371V73.8751H65.1579C68.5563 73.8751 71.314 71.1164 71.314 67.7187V54.4632L50.7907 36.9375Z" fill="#00AC47"/>
<path d="M65.1579 0H21.0371V21.037H50.7907V36.9376L71.3143 19.9316V6.15673C71.3143 2.75834 68.5563 0.000350711 65.1579 0.000350711" fill="#FFBA00"/>
</g>
<defs>
<clipPath id="clip0_150_1316">
<rect width="89.782" height="74" fill="white"/>
</clipPath>
</defs>
</svg>
