<svg width="80" height="90" viewBox="0 0 80 90" fill="none" xmlns="http://www.w3.org/2000/svg">
<g clip-path="url(#clip0_150_1305)">
<path d="M58.8785 32.4073C64.6752 36.5489 71.7765 38.9857 79.446 38.9857V24.235C77.9944 24.2356 76.5467 24.0841 75.1266 23.7831V35.3941C67.4577 35.3941 60.3573 32.9576 54.5595 28.8163V58.9185C54.5595 73.9774 42.3455 86.1839 27.2802 86.1839C21.6589 86.1839 16.4339 84.4853 12.0938 81.5721C17.0475 86.6348 23.9557 89.7752 31.5983 89.7752C46.6649 89.7752 58.8792 77.5687 58.8792 62.5092V32.4073H58.8785ZM64.2072 17.5257C61.2446 14.2909 59.2994 10.1106 58.8785 5.48893V3.5918H54.7854C55.8157 9.46569 59.3304 14.484 64.2072 17.5257ZM21.6226 70.0168C19.9673 67.848 19.0726 65.1943 19.0768 62.4661C19.0768 55.5789 24.6633 49.9946 31.5558 49.9946C32.8401 49.9938 34.1168 50.1909 35.3411 50.5789V35.4983C33.9104 35.3025 32.4666 35.219 31.0235 35.2498V46.9876C29.7987 46.5996 28.5213 46.4026 27.2364 46.4036C20.3443 46.4036 14.7581 51.9873 14.7581 58.8754C14.7581 63.7459 17.5502 67.9626 21.6226 70.0168Z" fill="#FF004F"/>
<path d="M54.5588 28.816C60.357 32.9572 67.4568 35.3938 75.126 35.3938V23.7828C70.8451 22.8713 67.0555 20.6356 64.2062 17.5257C59.3292 14.4837 55.8151 9.46538 54.7848 3.5918H44.0335V62.5086C44.009 69.3771 38.4321 74.9385 31.5545 74.9385C27.502 74.9385 23.9014 73.0079 21.6213 70.0165C17.5496 67.9626 14.7571 63.7456 14.7571 58.8757C14.7571 51.9882 20.3433 46.4039 27.2355 46.4039C28.556 46.4039 29.8287 46.6093 31.0226 46.9879V35.2501C16.2216 35.5558 4.31836 47.6431 4.31836 62.5089C4.31836 69.9299 7.28246 76.6572 12.0934 81.5728C16.4336 84.4854 21.6583 86.1845 27.2798 86.1845C42.3455 86.1845 54.5591 73.9771 54.5591 58.9185L54.5588 28.816Z" fill="black"/>
<path d="M75.1267 23.7817V20.6429C71.2664 20.6485 67.4823 19.568 64.2069 17.5249C67.1062 20.6972 70.9238 22.8849 75.1267 23.7823M54.7852 3.59069C54.687 3.02945 54.6117 2.46447 54.5592 1.89714V0H39.7142V58.9174C39.6906 65.7853 34.1137 71.3467 27.2359 71.3467C25.286 71.3496 23.3629 70.8939 21.6217 70.0163C23.9018 73.0071 27.5025 74.9374 31.5549 74.9374C38.4322 74.9374 44.0097 69.3766 44.0339 62.5081V3.591L54.7852 3.59069ZM31.0239 35.249V31.9069C29.7834 31.7375 28.5329 31.6527 27.2809 31.653C12.2136 31.653 0 43.8601 0 58.9174C0 68.3578 4.8001 76.6775 12.0944 81.5713C7.28348 76.6561 4.31938 69.9284 4.31938 62.5078C4.31938 47.6423 16.2223 35.5547 31.0239 35.249Z" fill="#00F2EA"/>
</g>
<defs>
<clipPath id="clip0_150_1305">
<rect width="79.4483" height="90" fill="white"/>
</clipPath>
</defs>
</svg>
