<svg width="91" height="91" viewBox="0 0 91 91" fill="none" xmlns="http://www.w3.org/2000/svg">
<g clip-path="url(#clip0_150_1351)">
<path d="M1.92775 44.9554C1.92563 52.6012 3.9234 60.0667 7.72212 66.647L1.56445 89.1296L24.5726 83.0968C30.9364 86.5611 38.0665 88.3764 45.3122 88.3769H45.3312C69.2505 88.3769 88.7213 68.9131 88.7315 44.9897C88.7361 33.397 84.2256 22.4961 76.0307 14.2948C67.8371 6.09421 56.9401 1.5756 45.3295 1.57031C21.4074 1.57031 1.93798 21.033 1.9281 44.9554" fill="url(#paint0_linear_150_1351)"/>
<path d="M0.377403 44.9413C0.374934 52.8622 2.4443 60.5947 6.37846 67.4105L0 90.6991L23.8332 84.4501C30.4 88.0305 37.7936 89.9182 45.3169 89.9211H45.3363C70.1137 89.9211 90.284 69.7571 90.2946 44.9773C90.2988 32.9681 85.6261 21.6753 77.1384 13.1802C68.6496 4.68615 57.3628 0.00493798 45.3363 0C20.5547 0 0.387279 20.1611 0.377403 44.9413ZM14.5709 66.2367L13.681 64.8241C9.94016 58.8759 7.96567 52.0023 7.9685 44.9441C7.97626 24.3474 24.7386 7.59039 45.3504 7.59039C55.3322 7.59462 64.713 11.4858 71.7687 18.5457C78.824 25.6063 82.7063 34.992 82.7038 44.9745C82.6947 65.5711 65.932 82.3303 45.3363 82.3303H45.3215C38.6154 82.3268 32.0383 80.5258 26.3025 77.1225L24.9375 76.313L10.7944 80.0211L14.5709 66.2367Z" fill="url(#paint1_linear_150_1351)"/>
<path d="M34.1 26.1527C33.2584 24.2822 32.3727 24.2445 31.5724 24.2117C30.9171 24.1835 30.1679 24.1856 29.4195 24.1856C28.6703 24.1856 27.4531 24.4674 26.4242 25.5908C25.3943 26.7152 22.4922 29.4325 22.4922 34.9592C22.4922 40.4859 26.5177 45.8274 27.0789 46.5776C27.6407 47.3264 34.8502 59.0308 46.2682 63.5336C55.7576 67.2755 57.6887 66.5313 59.7482 66.3436C61.8081 66.1567 66.3947 63.627 67.3305 61.0039C68.2669 58.3811 68.2669 56.1329 67.9862 55.6631C67.7054 55.1951 66.9563 54.914 65.8329 54.3524C64.7095 53.7909 59.1863 51.0729 58.1568 50.698C57.1269 50.3234 56.378 50.1365 55.6289 51.2613C54.8797 52.3843 52.7285 54.914 52.0728 55.6631C51.4178 56.414 50.7621 56.5075 49.6391 55.9456C48.515 55.382 44.8972 54.1972 40.6051 50.3707C37.2656 47.3931 35.011 43.716 34.3557 42.5912C33.7004 41.4682 34.2855 40.8594 34.8488 40.2996C35.3535 39.7963 35.9725 38.9879 36.5348 38.3322C37.0949 37.6762 37.2818 37.2081 37.6564 36.4589C38.0313 35.7091 37.8437 35.053 37.5633 34.4912C37.2818 33.9293 35.0989 28.3737 34.1 26.1527Z" fill="white"/>
</g>
<defs>
<linearGradient id="paint0_linear_150_1351" x1="4359.92" y1="8757.5" x2="4359.92" y2="1.57031" gradientUnits="userSpaceOnUse">
<stop stop-color="#1FAF38"/>
<stop offset="1" stop-color="#60D669"/>
</linearGradient>
<linearGradient id="paint1_linear_150_1351" x1="4514.73" y1="9069.91" x2="4514.73" y2="0" gradientUnits="userSpaceOnUse">
<stop stop-color="#F9F9F9"/>
<stop offset="1" stop-color="white"/>
</linearGradient>
<clipPath id="clip0_150_1351">
<rect width="90.2946" height="91" fill="white"/>
</clipPath>
</defs>
</svg>
