<svg width="91" height="81" viewBox="0 0 91 81" fill="none" xmlns="http://www.w3.org/2000/svg">
<g clip-path="url(#clip0_150_1324)">
<path d="M6.84574 69.3387L10.8391 76.2361C11.669 77.6884 12.8617 78.8295 14.262 79.6593C18.2729 74.568 21.0648 70.661 22.6379 67.9384C24.2343 65.1754 26.1964 60.8537 28.524 54.9731C22.2506 54.1473 17.4967 53.7344 14.2624 53.7344C11.158 53.7344 6.40383 54.1473 0 54.9731C0 56.5807 0.414904 58.1883 1.24471 59.6407L6.84574 69.3387Z" fill="#0066DA"/>
<path d="M76.2881 79.6593C77.6888 78.8295 78.8816 77.6884 79.711 76.2365L81.3706 73.3841L89.3058 59.6407C90.1202 58.2198 90.5491 56.6108 90.5502 54.9731C84.1091 54.1473 79.3638 53.7344 76.3143 53.7344C73.0368 53.7344 68.2914 54.1473 62.0781 54.9731C64.3782 60.886 66.3144 65.2077 67.8868 67.9384C69.4724 70.6933 72.2728 74.6003 76.2881 79.6593Z" fill="#EA4335"/>
<path d="M45.2757 25.931C49.9164 20.3263 53.1145 16.0045 54.8701 12.9657C56.284 10.5187 57.8399 6.6117 59.5377 1.24471C58.1374 0.414904 56.5297 0 54.8701 0H35.6813C34.0216 0 32.4144 0.4669 31.0137 1.24471C33.1737 7.4 35.0064 11.7806 36.5118 14.3865C38.1756 17.2664 41.0969 21.1146 45.2757 25.931Z" fill="#00832D"/>
<path d="M62.0262 54.9746H28.5234L14.2617 79.6609C15.6617 80.4907 17.2693 80.9056 18.9289 80.9056H71.6207C73.2803 80.9056 74.8883 80.4387 76.2883 79.6605L62.0262 54.9746Z" fill="#2684FC"/>
<path d="M45.2755 25.93L31.0138 1.24414C29.6131 2.07395 28.4204 3.21467 27.5906 4.66701L1.24471 50.3054C0.430204 51.7262 0.00112534 53.3352 0 54.973H28.524L45.2755 25.93Z" fill="#00AC47"/>
<path d="M76.1332 27.4864L62.9599 4.66701C62.1305 3.21467 60.9374 2.07395 59.5371 1.24414L45.2754 25.9304L62.0265 54.9733H90.4989C90.4989 53.3653 90.084 51.7581 89.2541 50.3057L76.1332 27.4864Z" fill="#FFBA00"/>
</g>
<defs>
<clipPath id="clip0_150_1324">
<rect width="90.5502" height="81" fill="white"/>
</clipPath>
</defs>
</svg>
